<svg width="86" height="86" viewBox="0 0 86 86" fill="none" xmlns="http://www.w3.org/2000/svg">
<g id="Group 26">
<circle id="Ellipse 28" cx="43" cy="43" r="36" fill="#85868C"/>
<circle id="Ellipse 29" cx="43" cy="43" r="42.5" stroke="#85868C" stroke-dasharray="2 2"/>
<g id="Group 24">
<path id="Vector" d="M41.5069 38.7161L43.7576 35.9601C43.1146 35.7765 42.4258 35.6846 41.7366 35.6846C37.7407 35.6846 34.4795 38.9458 34.4795 42.9417C34.4795 46.9375 37.7408 50.1988 41.7366 50.1988C45.7324 50.1988 48.9937 46.9375 48.9937 42.9417C48.9937 42.2528 48.9017 41.5637 48.7182 40.9206L45.9621 43.1713C45.8244 45.422 43.9873 47.1672 41.7365 47.1672C39.3941 47.1672 37.5108 45.284 37.5108 42.9416C37.4647 40.645 39.256 38.808 41.5067 38.7159L41.5069 38.7161Z" fill="white"/>
<path id="Vector_2" d="M65.4999 24.8564C65.3627 24.5345 65.0424 24.3049 64.6768 24.3049H60.2857V19.892C60.2857 19.5242 60.057 19.2026 59.7369 19.0648C59.4166 18.9269 59.051 19.0189 58.7763 19.2485L54.1565 23.9371C53.9737 24.1209 53.8821 24.3049 53.8821 24.5348V27.7986L40.8923 42.0941C40.4807 42.5538 40.4807 43.2432 40.8923 43.703C41.3498 44.2087 42.0814 44.2087 42.5846 43.7951L56.8093 30.7406H60.0569C60.2857 30.7406 60.5144 30.6486 60.6516 30.4649L65.2712 25.8221C65.5455 25.5922 65.5912 25.2245 65.4999 24.8567L65.4999 24.8564Z" fill="white"/>
<path id="Vector_3" d="M59.9573 41.4072H57.5676C57.3378 39.2009 56.6945 37.1325 55.6835 35.2938L53.2939 37.2243C53.9372 38.5114 54.3507 39.8903 54.5347 41.4073H52.7884C51.9614 41.4073 51.272 42.0966 51.272 42.9241C51.272 43.7514 51.9611 44.441 52.7884 44.441H54.5347C53.7994 50.8302 48.3771 55.7485 41.7599 55.7485C35.1888 55.7485 29.7662 50.7843 29.031 44.441H30.7773C31.6043 44.441 32.2937 43.7516 32.2937 42.9241C32.294 42.0969 31.5587 41.4073 30.7314 41.4073H28.9851C29.6746 35.5237 34.3618 30.8352 40.1976 30.1457V31.8925C40.1976 32.7197 40.8867 33.4093 41.714 33.4093C42.541 33.4093 43.2304 32.72 43.2304 31.8925V30.1457C44.7011 30.3294 46.1255 30.7433 47.4122 31.3868L49.3419 28.9966C47.5039 27.9853 45.4357 27.3418 43.2302 27.1581V24.7219C43.2302 23.8947 42.541 23.205 41.7137 23.205C40.8868 23.205 40.1973 23.8944 40.1973 24.7219V27.1122C32.6614 27.8016 26.6413 33.8688 25.9061 41.4075H23.5164C22.6895 41.4075 22 42.0969 22 42.9244C22 43.7516 22.6892 44.4412 23.5164 44.4412H25.9061C26.4115 49.5434 29.3066 53.9561 33.4881 56.4842L30.7307 60.621C30.5471 60.8967 30.5471 61.2186 30.6849 61.5402C30.8227 61.816 31.1446 62 31.4661 62H51.9609C52.2827 62 52.6042 61.8163 52.7421 61.5402C52.8799 61.2645 52.8799 60.8967 52.6962 60.621L49.9389 56.4842C54.1207 53.956 57.0617 49.5435 57.5671 44.4412H59.9568C60.7837 44.4412 61.4732 43.7519 61.4732 42.9244C61.4729 42.0972 60.7837 41.4075 59.9564 41.4075L59.9573 41.4072Z" fill="white"/>
</g>
</g>
</svg>
