<svg width="86" height="86" viewBox="0 0 86 86" fill="none" xmlns="http://www.w3.org/2000/svg">
<g id="Group 26">
<circle id="Ellipse 28" cx="43" cy="43" r="36" fill="#85868C"/>
<circle id="Ellipse 29" cx="43" cy="43" r="42.5" stroke="#85868C" stroke-dasharray="2 2"/>
<path id="Vector" d="M57.2999 32.3998H49.6999V27.6498L51.79 29.9299C52.5499 30.6899 53.69 30.6899 54.4499 29.9299C55.2099 29.17 55.2099 28.0299 54.4499 27.27L49.1301 21.57C48.3701 20.81 47.2301 20.81 46.4701 21.57L41.1503 27.27C40.3903 28.0299 40.3903 29.17 41.1503 29.9299C41.9102 30.6899 43.0503 30.6899 43.8102 29.9299L45.9 27.6498V32.3998H34.5C31.4599 32.3998 28.8 34.8697 28.8 38.0999V39.9999C26.7099 39.9999 25 41.7098 25 43.7999V47.5999C25 49.69 26.7099 51.3999 28.8 51.3999V53.3C28.8 56.5301 31.2699 59 34.5 59H57.3C60.5301 59 63 56.5301 63 53.3V38.0999C63 34.8697 60.5301 32.3998 57.2999 32.3998ZM28.7999 43.7999H34.4999C35.64 43.7999 36.3999 44.5598 36.3999 45.6999C36.3999 46.84 35.64 47.5999 34.4999 47.5999H28.7999V43.7999ZM59.1999 53.3C59.1999 54.44 58.44 55.2 57.2999 55.2H34.4999C33.3599 55.2 32.5999 54.44 32.5999 53.3V51.3999H34.4999C37.7301 51.3999 40.1999 48.9301 40.1999 45.6999C40.1999 42.4698 37.7301 39.9999 34.4999 39.9999H32.5999V38.0999C32.5999 36.9598 33.3599 36.1998 34.4999 36.1998H45.8999V45.6999C45.8999 46.84 46.6599 47.5999 47.7999 47.5999C48.94 47.5999 49.6999 46.84 49.6999 45.6999V36.1998H57.2999C58.44 36.1998 59.1999 36.9598 59.1999 38.0999V53.3Z" fill="white"/>
</g>
</svg>
