<svg width="24" height="24" viewBox="0 0 24 24" fill="none" xmlns="http://www.w3.org/2000/svg">
<path d="M19.6 21.5859L13.3 15.2859C12.8 15.6859 12.225 16.0026 11.575 16.2359C10.925 16.4693 10.2333 16.5859 9.5 16.5859C7.68333 16.5859 6.146 15.9566 4.888 14.6979C3.63 13.4393 3.00067 11.9019 3 10.0859C3 8.26927 3.62933 6.73194 4.888 5.47394C6.14667 4.21594 7.684 3.5866 9.5 3.58594C11.3167 3.58594 12.854 4.21527 14.112 5.47394C15.37 6.7326 15.9993 8.26994 16 10.0859C16 10.8193 15.8833 11.5109 15.65 12.1609C15.4167 12.8109 15.1 13.3859 14.7 13.8859L21 20.1859L19.6 21.5859ZM9.5 14.5859C10.75 14.5859 11.8127 14.1483 12.688 13.2729C13.5633 12.3976 14.0007 11.3353 14 10.0859C14 8.83594 13.5623 7.77327 12.687 6.89794C11.8117 6.0226 10.7493 5.58527 9.5 5.58594C8.25 5.58594 7.18733 6.0236 6.312 6.89894C5.43667 7.77427 4.99933 8.8366 5 10.0859C5 11.3359 5.43767 12.3986 6.313 13.2739C7.18833 14.1493 8.25067 14.5866 9.5 14.5859Z" fill="#FCFCFC"/>
</svg>
