<svg width="86" height="86" viewBox="0 0 86 86" fill="none" xmlns="http://www.w3.org/2000/svg">
<g id="Group 26">
<circle id="Ellipse 28" cx="43" cy="43" r="36" fill="#85868C"/>
<circle id="Ellipse 29" cx="43" cy="43" r="42.5" stroke="#85868C" stroke-dasharray="2 2"/>
<g id="Group 23">
<path id="Vector" d="M65.467 41.4766L61.9764 33.0684C61.4968 31.9133 60.3781 31.1668 59.1259 31.1668L52.5401 31.1671C50.9841 31.1671 49.7181 32.4318 49.7181 33.9863V45.43H48.5864V30.0366H53.4369C53.7593 30.0366 54.0622 29.8833 54.2534 29.6239C54.4439 29.3642 54.4998 29.0296 54.4036 28.7222L53.1441 24.7092C53.0116 24.2871 52.6199 24 52.1775 24H32.5001C32.1713 24 31.8632 24.1594 31.6733 24.4275L22.186 37.8229C22.0649 37.9939 22 38.1978 22 38.4072V51.549C22 52.1078 22.4534 52.5608 23.0128 52.5608H25.3329C25.3901 55.0177 27.4044 57 29.877 57C32.3495 57 34.3639 55.0177 34.421 52.5608H35.0217C35.0789 55.0177 37.0932 57 39.5658 57C42.0387 57 44.0527 55.0177 44.1099 52.5608H52.4298C52.4869 55.0177 54.5013 57 56.9735 57C59.4464 57 61.4604 55.0177 61.5176 52.5608H62.4584C64.1597 52.5608 65.5436 51.178 65.5436 49.4787V41.8641C65.5432 41.7315 65.5171 41.5995 65.4664 41.4769L65.467 41.4766ZM63.1346 41.1414H55.7462V35.6723H60.8642L63.1346 41.1414ZM63.5183 46.9583H62.7926C62.5581 46.9583 62.3675 46.7679 62.3675 46.5337V45.53C62.3675 45.2958 62.5581 45.1054 62.7926 45.1054H63.5183V46.9583ZM33.025 26.0236H51.434L52.0583 28.013H31.6154L33.025 26.0236ZM24.0263 38.7284L30.1826 30.0361H46.5611V45.4294H24.0264L24.0263 38.7284ZM24.0263 47.453H49.7185V50.5368H43.6846C42.9589 48.9882 41.3878 47.9102 39.5659 47.9102C37.7441 47.9102 36.1733 48.9882 35.4476 50.5368H33.9958C33.2702 48.9882 31.699 47.9102 29.8772 47.9102C28.0554 47.9102 26.4845 48.9882 25.7585 50.5368H24.0258V47.453H24.0263ZM42.0898 52.4546C42.0898 53.8452 40.9578 54.976 39.5659 54.976C38.1742 54.976 37.0423 53.8452 37.0423 52.4546C37.0423 51.0644 38.1742 49.9336 39.5659 49.9336C40.9575 49.9339 42.0898 51.0647 42.0898 52.4546ZM32.4007 52.4546C32.4007 53.8452 31.2685 54.976 29.8768 54.976C28.4852 54.976 27.3529 53.8452 27.3529 52.4546C27.3529 51.0644 28.4852 49.9336 29.8768 49.9336C31.2685 49.9336 32.4007 51.0647 32.4007 52.4546ZM59.4976 52.4546C59.4976 53.8452 58.3657 54.976 56.9737 54.976C55.5821 54.976 54.4501 53.8452 54.4501 52.4546C54.4501 51.0644 55.5821 49.9336 56.9737 49.9336C58.3657 49.9339 59.4976 51.0647 59.4976 52.4546ZM62.4585 50.5368H61.0924C60.3667 48.9882 58.7955 47.9102 56.9737 47.9102C55.1522 47.9102 53.5814 48.9882 52.8554 50.5368H51.7434V33.9855C51.7434 33.5467 52.1006 33.1898 52.5398 33.1898H59.1263C59.5562 33.1898 59.9405 33.4463 60.1052 33.8429L60.2641 34.2258L55.0227 34.2261C54.6232 34.2261 54.2993 34.5498 54.2993 34.9489V41.8634C54.2993 42.2625 54.6232 42.5861 55.0227 42.5861H63.5179V43.6592H62.7922C61.7604 43.6592 60.9203 44.498 60.9203 45.5292V46.5329C60.9203 47.5637 61.76 48.403 62.7922 48.403H63.5179V49.478C63.5179 50.0617 63.0428 50.5366 62.4583 50.5366L62.4585 50.5368Z" fill="white"/>
<path id="Vector_2" d="M56.9853 51.523C56.4945 51.523 56.0954 51.9221 56.0954 52.4129C56.0954 52.9037 56.4945 53.3031 56.9853 53.3031C57.4762 53.3031 57.8755 52.904 57.8755 52.4129C57.8755 51.9224 57.4765 51.523 56.9853 51.523Z" fill="white"/>
<path id="Vector_3" d="M43.4295 30.9834C43.0136 30.9834 42.6763 31.3078 42.6763 31.7079V43.541C42.6763 43.9411 43.0136 44.2656 43.4295 44.2656C43.8453 44.2656 44.1826 43.9411 44.1826 43.541V31.7079C44.1826 31.3078 43.8457 30.9834 43.4295 30.9834Z" fill="white"/>
<path id="Vector_4" d="M37.9523 30.9834C37.5364 30.9834 37.1992 31.3078 37.1992 31.7079V43.541C37.1992 43.9411 37.5364 44.2656 37.9523 44.2656C38.3682 44.2656 38.7054 43.9411 38.7054 43.541V31.7079C38.7054 31.3078 38.3682 30.9834 37.9523 30.9834Z" fill="white"/>
<path id="Vector_5" d="M32.5436 30.9834C32.1655 30.9834 31.8589 31.3078 31.8589 31.7079V43.541C31.8589 43.9411 32.1655 44.2656 32.5436 44.2656C32.9216 44.2656 33.2282 43.9411 33.2282 43.541V31.7079C33.2282 31.3078 32.9216 30.9834 32.5436 30.9834Z" fill="white"/>
<path id="Vector_6" d="M27.0664 36.5972C26.6883 36.5972 26.3817 36.9231 26.3817 37.3252V43.5372C26.3817 43.9392 26.6883 44.2652 27.0664 44.2652C27.4445 44.2652 27.751 43.9392 27.751 43.5372V37.3252C27.751 36.9231 27.4448 36.5972 27.0664 36.5972Z" fill="white"/>
<path id="Vector_7" d="M29.8734 51.523C29.3827 51.523 28.9834 51.9221 28.9834 52.4129C28.9834 52.9037 29.3824 53.3031 29.8734 53.3031C30.3642 53.3031 30.7635 52.904 30.7635 52.4129C30.7635 51.9224 30.3642 51.523 29.8734 51.523Z" fill="white"/>
<path id="Vector_8" d="M39.5269 51.523C39.0738 51.523 38.7054 51.9221 38.7054 52.4129C38.7054 52.9037 39.0738 53.3031 39.5269 53.3031C39.98 53.3031 40.3486 52.904 40.3486 52.4129C40.3483 51.9224 39.9799 51.523 39.5269 51.523Z" fill="white"/>
</g>
</g>
</svg>
