<svg width="86" height="86" viewBox="0 0 86 86" fill="none" xmlns="http://www.w3.org/2000/svg">
<g id="Group 26">
<circle id="Ellipse 28" cx="43" cy="43" r="36" fill="#85868C"/>
<circle id="Ellipse 29" cx="43" cy="43" r="42.5" stroke="#85868C" stroke-dasharray="2 2"/>
<g id="Group 25">
<path id="Vector" d="M48.7645 23.288C48.4322 23.3319 48.124 23.4854 47.8896 23.7244L32.3297 39.1906C32.0476 39.4711 31.889 39.8525 31.889 40.2499C31.8886 40.6477 32.0473 41.0291 32.329 41.3099C32.6111 41.5908 32.9937 41.7481 33.3919 41.7474H35.7823V54.2201H27.893V42.5581C27.893 42.1614 27.735 41.7807 27.4536 41.4998C27.1722 41.2193 26.791 41.0617 26.3932 41.0617H26.0026L35.767 30.7717L36.0014 31.0056C36.2709 31.3341 36.6678 31.5331 37.0929 31.5526C37.5183 31.5721 37.9319 31.4103 38.2304 31.1079C38.5292 30.8055 38.6851 30.3903 38.6593 29.9664C38.6331 29.5422 38.4281 29.1493 38.0947 28.8852L36.7825 27.5756C36.4941 27.2951 36.105 27.142 35.7025 27.1507C35.3001 27.1594 34.9179 27.3296 34.6421 27.6223L21.4104 41.5293C21.1398 41.8143 20.9926 42.1943 21.0003 42.5869C21.0076 42.9794 21.1698 43.3535 21.4508 43.6282C21.7322 43.9027 22.1102 44.0559 22.504 44.0548H24.894V55.7168C24.894 56.1135 25.052 56.4942 25.3334 56.7751C25.6148 57.0556 25.9959 57.2132 26.3938 57.2132H60.6068C61.0047 57.2132 61.3859 57.0556 61.6673 56.7751C61.9487 56.4942 62.1067 56.1135 62.1067 55.7168V41.7474H64.4967C64.8953 41.7481 65.2775 41.5908 65.5596 41.3099C65.8417 41.0291 66 40.6477 66 40.2499C66 39.8525 65.8413 39.4711 65.5592 39.1906L49.9993 23.7244C49.6764 23.398 49.2217 23.2372 48.7653 23.288H48.7645ZM48.9361 26.8893L60.8716 38.7543H60.6059C60.208 38.7543 59.8269 38.912 59.5454 39.1928C59.264 39.4737 59.1061 39.8541 59.1061 40.2511V54.2205H55.1066V44.1177C55.1066 43.7209 54.9487 43.3402 54.6676 43.0594C54.3862 42.7789 54.0047 42.6212 53.6072 42.6212H44.2802C44.2282 42.6184 44.1759 42.6184 44.1239 42.6212C43.7539 42.6598 43.4115 42.8345 43.1632 43.1109C42.9149 43.3875 42.7782 43.7463 42.7803 44.1177V54.2205H38.7809V40.2511C38.7809 39.8541 38.6229 39.4737 38.3419 39.1928C38.0604 38.912 37.6789 38.7543 37.2814 38.7543H37.0157L48.9361 26.8893ZM45.7806 45.6143H52.1076V54.2206H45.7806V45.6143ZM47.3895 49.5277C46.9602 49.5277 46.6084 49.8802 46.6084 50.3072C46.6084 50.7343 46.9602 51.0711 47.3895 51.0711C47.8191 51.0711 48.1706 50.7343 48.1706 50.3072C48.1706 49.8802 47.8191 49.5277 47.3895 49.5277Z" fill="white"/>
</g>
</g>
</svg>
