<svg width="24" height="24" viewBox="0 0 24 24" fill="none" xmlns="http://www.w3.org/2000/svg">
<path d="M12 12.5859C12.55 12.5859 13.021 12.3899 13.413 11.9979C13.805 11.6059 14.0007 11.1353 14 10.5859C14 10.0359 13.804 9.56494 13.412 9.17294C13.02 8.78094 12.5493 8.58527 12 8.58594C11.45 8.58594 10.979 8.78194 10.587 9.17394C10.195 9.56594 9.99933 10.0366 10 10.5859C10 11.1359 10.196 11.6069 10.588 11.9989C10.98 12.3909 11.4507 12.5866 12 12.5859ZM12 22.2109C11.8667 22.2109 11.7333 22.1859 11.6 22.1359C11.4667 22.0859 11.35 22.0193 11.25 21.9359C8.81667 19.7859 7 17.7899 5.8 15.9479C4.6 14.1059 4 12.3853 4 10.7859C4 8.28594 4.80433 6.29427 6.413 4.81094C8.02167 3.3276 9.884 2.58594 12 2.58594C14.1167 2.58594 15.9793 3.3276 17.588 4.81094C19.1967 6.29427 20.0007 8.28594 20 10.7859C20 12.3859 19.4 14.1069 18.2 15.9489C17 17.7909 15.1833 19.7866 12.75 21.9359C12.65 22.0193 12.5333 22.0859 12.4 22.1359C12.2667 22.1859 12.1333 22.2109 12 22.2109Z" fill="#FCFCFC"/>
</svg>
